# xmcd CD database file
#
# Track frame offsets:
#	150
#	15800
#	33040
#	47383
#	66401
#	78445
#	97019
#	113962
#	133524
#	151585
#	171950
#	184849
#	205353
#	219366
#	238549
#	263702
#
# Disc length: 3522 seconds
#
# Revision: 0
# Processed by: cddbd v1.5.2PL0 Copyright (c) Steve Scherf et al.
# Submitted via: CDex 1.70beta1
#
DISCID=c90dc010
DTITLE=Tomas Linka a Pavel Brumer - Posledni soud
DYEAR=2004
DGENRE=Country
TTITLE0=Harley
TTITLE1=Bidnej, star
TTITLE2=Velkej sen
TTITLE3=Hledam
TTITLE4=Ja do nebe jeste nechci
TTITLE5=Jsou my
TTITLE6=Vem si ji honem
TTITLE7=Tisic mili nikam
TTITLE8=Jsem sam
TTITLE9=To nejlepsi dat
TTITLE10=Chevrolet
TTITLE11=Nech bejt Joe
TTITLE12=Mym hrdinou byl vzdycky cowboy
TTITLE13=Hraj fer
TTITLE14=Posledni soud
TTITLE15=Data - noty, texty, akordy, ...
EXTD=YEAR: 2004
EXTT0=
EXTT1=
EXTT2=
EXTT3=
EXTT4=
EXTT5=
EXTT6=
EXTT7=
EXTT8=
EXTT9=
EXTT10=
EXTT11=
EXTT12=
EXTT13=
EXTT14=
EXTT15=
PLAYORDER=
